<svg width="110" height="18" viewBox="0 0 110 18" fill="none" xmlns="http://www.w3.org/2000/svg">
<line x1="1" y1="18" x2="1" stroke="#D09498" stroke-width="2"/>
<path d="M13.3404 14V4.662H16.2664C19.1877 4.662 20.6484 6.216 20.6484 9.324C20.6484 12.4413 19.1877 14 16.2664 14H13.3404ZM14.3484 13.048H16.1964C17.3911 13.048 18.2591 12.7493 18.8004 12.152C19.3417 11.5547 19.6124 10.612 19.6124 9.324C19.6124 8.036 19.3417 7.09333 18.8004 6.496C18.2591 5.89867 17.3911 5.6 16.1964 5.6H14.3484V13.048ZM22.6783 14V4.662H28.5723V5.614H23.6863V8.834H27.9843V9.814H23.6863V13.048H28.5723V14H22.6783ZM33.487 14L29.903 4.662H30.981L34.033 12.67L37.029 4.69L38.065 4.662L34.481 14H33.487ZM39.5357 14V4.662H45.4297V5.614H40.5437V8.834H44.8417V9.814H40.5437V13.048H45.4297V14H39.5357ZM47.6705 14V4.662H48.6785V13.02H53.4525V14H47.6705ZM58.8346 14.14C56.0439 14.14 54.6486 12.5393 54.6486 9.338C54.6486 6.13667 56.0439 4.536 58.8346 4.536C61.6346 4.536 63.0346 6.13667 63.0346 9.338C63.0346 12.5393 61.6346 14.14 58.8346 14.14ZM58.8346 13.188C59.9453 13.188 60.7479 12.88 61.2426 12.264C61.7466 11.6387 61.9986 10.6633 61.9986 9.338C61.9986 8.01267 61.7466 7.042 61.2426 6.426C60.7479 5.80067 59.9453 5.488 58.8346 5.488C57.7333 5.488 56.9306 5.80067 56.4266 6.426C55.9319 7.042 55.6846 8.01267 55.6846 9.338C55.6846 10.6633 55.9319 11.6387 56.4266 12.264C56.9306 12.88 57.7333 13.188 58.8346 13.188ZM66.0691 10.43V14H65.0611V4.662H68.3791C69.4244 4.662 70.2224 4.90933 70.7731 5.404C71.3331 5.89867 71.6131 6.61267 71.6131 7.546C71.6131 8.47933 71.3331 9.19333 70.7731 9.688C70.2224 10.1827 69.4244 10.43 68.3791 10.43H66.0691ZM66.0691 9.464H68.2531C68.7758 9.464 69.1911 9.408 69.4991 9.296C69.8164 9.184 70.0544 9.03467 70.2131 8.848C70.3718 8.652 70.4744 8.442 70.5211 8.218C70.5771 7.994 70.6051 7.77 70.6051 7.546C70.6051 7.322 70.5771 7.098 70.5211 6.874C70.4744 6.65 70.3718 6.44467 70.2131 6.258C70.0544 6.062 69.8164 5.908 69.4991 5.796C69.1911 5.684 68.7758 5.628 68.2531 5.628H66.0691V9.464ZM73.647 14V4.662H74.739L77.903 9.52L81.165 4.662H82.257V14H81.249V6.3L77.847 11.074L74.655 6.328V14H73.647ZM84.6392 14V4.662H90.5332V5.614H85.6472V8.834H89.9452V9.814H85.6472V13.048H90.5332V14H84.6392ZM92.774 14V4.662H93.922L99.494 12.53V4.662H100.502V14H99.368L93.782 6.132V14H92.774ZM105.272 14V5.614H101.968V4.662H109.57V5.614H106.28V14H105.272Z" fill="#373737"/>
</svg>
