<svg width="111" height="24" viewBox="0 0 111 24" fill="none" xmlns="http://www.w3.org/2000/svg">
<path d="M109 0H28.0371C26.9325 0 26.0371 0.89543 26.0371 2V22C26.0371 23.1046 26.9325 24 28.0371 24H109C110.105 24 111 23.1046 111 22V2C111 0.895431 110.105 0 109 0Z" fill="#0E9DCA"/>
<path d="M30.8889 0H2C0.895431 0 0 0.89543 0 2V22C0 23.1046 0.89543 24 2 24H30.8889C31.9935 24 32.8889 23.1046 32.8889 22V2C32.8889 0.895431 31.9935 0 30.8889 0Z" fill="#555555"/>
<path d="M111 0H0V24H111V0Z" fill="url(#paint0_linear)"/>
<path d="M50.1035 18H43.6641V7.82129H45.0176V16.7969H50.1035V18ZM52.7354 9.08594H51.2861V7.75293H52.7354V9.08594ZM52.6533 18H51.3682V10.3643H52.6533V18ZM61.5811 18H60.2959V13.6523C60.2959 13.3014 60.2754 12.9733 60.2344 12.668C60.1934 12.3581 60.1182 12.1165 60.0088 11.9434C59.8949 11.752 59.7308 11.6107 59.5166 11.5195C59.3024 11.4238 59.0244 11.376 58.6826 11.376C58.3317 11.376 57.9648 11.4626 57.582 11.6357C57.1992 11.8089 56.8324 12.0299 56.4814 12.2988V18H55.1963V10.3643H56.4814V11.2119C56.8825 10.8792 57.2972 10.6195 57.7256 10.4326C58.154 10.2458 58.5938 10.1523 59.0449 10.1523C59.8698 10.1523 60.4987 10.4007 60.9316 10.8975C61.3646 11.3942 61.5811 12.1097 61.5811 13.0439V18ZM70.9873 18H69.292L66.2295 14.6572L65.3955 15.4502V18H64.1104V7.36328H65.3955V14.1855L69.1074 10.3643H70.7275L67.1797 13.8916L70.9873 18ZM78.5957 14.3154H72.9697C72.9697 14.7848 73.0404 15.195 73.1816 15.5459C73.3229 15.8923 73.5166 16.1771 73.7627 16.4004C73.9997 16.6191 74.2799 16.7832 74.6035 16.8926C74.9316 17.002 75.2917 17.0566 75.6836 17.0566C76.2031 17.0566 76.7249 16.9541 77.249 16.749C77.7777 16.5394 78.1536 16.3343 78.377 16.1338H78.4453V17.5352C78.0124 17.7174 77.5703 17.8701 77.1191 17.9932C76.668 18.1162 76.194 18.1777 75.6973 18.1777C74.4303 18.1777 73.4414 17.8359 72.7305 17.1523C72.0195 16.4642 71.6641 15.4889 71.6641 14.2266C71.6641 12.9779 72.0036 11.9867 72.6826 11.2529C73.3662 10.5192 74.264 10.1523 75.376 10.1523C76.4059 10.1523 77.1989 10.4531 77.7549 11.0547C78.3154 11.6562 78.5957 12.5107 78.5957 13.6182V14.3154ZM77.3447 13.3311C77.3402 12.6566 77.1693 12.1348 76.832 11.7656C76.4993 11.3965 75.9912 11.2119 75.3076 11.2119C74.6195 11.2119 74.0703 11.4147 73.6602 11.8203C73.2546 12.2259 73.0244 12.7295 72.9697 13.3311H77.3447ZM86.7373 18H85.4521V17.2002C85.083 17.5192 84.6979 17.7676 84.2969 17.9453C83.8958 18.123 83.4606 18.2119 82.9912 18.2119C82.0798 18.2119 81.3551 17.861 80.8174 17.1592C80.2842 16.4574 80.0176 15.4844 80.0176 14.2402C80.0176 13.5931 80.1087 13.0166 80.291 12.5107C80.4779 12.0049 80.7285 11.5742 81.043 11.2188C81.3529 10.8724 81.7129 10.6081 82.123 10.4258C82.5378 10.2435 82.9661 10.1523 83.4082 10.1523C83.8092 10.1523 84.1647 10.1956 84.4746 10.2822C84.7845 10.3643 85.1104 10.4941 85.4521 10.6719V7.36328H86.7373V18ZM85.4521 16.1201V11.7383C85.1058 11.5833 84.7959 11.4762 84.5225 11.417C84.249 11.3577 83.9505 11.3281 83.627 11.3281C82.9069 11.3281 82.3464 11.5788 81.9453 12.0801C81.5443 12.5814 81.3438 13.2923 81.3438 14.2129C81.3438 15.1198 81.4987 15.8102 81.8086 16.2842C82.1185 16.7536 82.6152 16.9883 83.2988 16.9883C83.6634 16.9883 84.0326 16.9085 84.4062 16.749C84.7799 16.585 85.1286 16.3753 85.4521 16.1201ZM90.6475 9.08594H89.1982V7.75293H90.6475V9.08594ZM90.5654 18H89.2803V10.3643H90.5654V18ZM99.4932 18H98.208V13.6523C98.208 13.3014 98.1875 12.9733 98.1465 12.668C98.1055 12.3581 98.0303 12.1165 97.9209 11.9434C97.807 11.752 97.6429 11.6107 97.4287 11.5195C97.2145 11.4238 96.9365 11.376 96.5947 11.376C96.2438 11.376 95.877 11.4626 95.4941 11.6357C95.1113 11.8089 94.7445 12.0299 94.3936 12.2988V18H93.1084V10.3643H94.3936V11.2119C94.7946 10.8792 95.2093 10.6195 95.6377 10.4326C96.0661 10.2458 96.5059 10.1523 96.957 10.1523C97.7819 10.1523 98.4108 10.4007 98.8438 10.8975C99.2767 11.3942 99.4932 12.1097 99.4932 13.0439V18Z" fill="#010101" fill-opacity="0.3"/>
<path d="M50.1035 17H43.6641V6.82129H45.0176V15.7969H50.1035V17ZM52.7354 8.08594H51.2861V6.75293H52.7354V8.08594ZM52.6533 17H51.3682V9.36426H52.6533V17ZM61.5811 17H60.2959V12.6523C60.2959 12.3014 60.2754 11.9733 60.2344 11.668C60.1934 11.3581 60.1182 11.1165 60.0088 10.9434C59.8949 10.752 59.7308 10.6107 59.5166 10.5195C59.3024 10.4238 59.0244 10.376 58.6826 10.376C58.3317 10.376 57.9648 10.4626 57.582 10.6357C57.1992 10.8089 56.8324 11.0299 56.4814 11.2988V17H55.1963V9.36426H56.4814V10.2119C56.8825 9.87923 57.2972 9.61947 57.7256 9.43262C58.154 9.24577 58.5938 9.15234 59.0449 9.15234C59.8698 9.15234 60.4987 9.40072 60.9316 9.89746C61.3646 10.3942 61.5811 11.1097 61.5811 12.0439V17ZM70.9873 17H69.292L66.2295 13.6572L65.3955 14.4502V17H64.1104V6.36328H65.3955V13.1855L69.1074 9.36426H70.7275L67.1797 12.8916L70.9873 17ZM78.5957 13.3154H72.9697C72.9697 13.7848 73.0404 14.195 73.1816 14.5459C73.3229 14.8923 73.5166 15.1771 73.7627 15.4004C73.9997 15.6191 74.2799 15.7832 74.6035 15.8926C74.9316 16.002 75.2917 16.0566 75.6836 16.0566C76.2031 16.0566 76.7249 15.9541 77.249 15.749C77.7777 15.5394 78.1536 15.3343 78.377 15.1338H78.4453V16.5352C78.0124 16.7174 77.5703 16.8701 77.1191 16.9932C76.668 17.1162 76.194 17.1777 75.6973 17.1777C74.4303 17.1777 73.4414 16.8359 72.7305 16.1523C72.0195 15.4642 71.6641 14.4889 71.6641 13.2266C71.6641 11.9779 72.0036 10.9867 72.6826 10.2529C73.3662 9.51921 74.264 9.15234 75.376 9.15234C76.4059 9.15234 77.1989 9.45312 77.7549 10.0547C78.3154 10.6562 78.5957 11.5107 78.5957 12.6182V13.3154ZM77.3447 12.3311C77.3402 11.6566 77.1693 11.1348 76.832 10.7656C76.4993 10.3965 75.9912 10.2119 75.3076 10.2119C74.6195 10.2119 74.0703 10.4147 73.6602 10.8203C73.2546 11.2259 73.0244 11.7295 72.9697 12.3311H77.3447ZM86.7373 17H85.4521V16.2002C85.083 16.5192 84.6979 16.7676 84.2969 16.9453C83.8958 17.123 83.4606 17.2119 82.9912 17.2119C82.0798 17.2119 81.3551 16.861 80.8174 16.1592C80.2842 15.4574 80.0176 14.4844 80.0176 13.2402C80.0176 12.5931 80.1087 12.0166 80.291 11.5107C80.4779 11.0049 80.7285 10.5742 81.043 10.2188C81.3529 9.8724 81.7129 9.60807 82.123 9.42578C82.5378 9.24349 82.9661 9.15234 83.4082 9.15234C83.8092 9.15234 84.1647 9.19564 84.4746 9.28223C84.7845 9.36426 85.1104 9.49414 85.4521 9.67188V6.36328H86.7373V17ZM85.4521 15.1201V10.7383C85.1058 10.5833 84.7959 10.4762 84.5225 10.417C84.249 10.3577 83.9505 10.3281 83.627 10.3281C82.9069 10.3281 82.3464 10.5788 81.9453 11.0801C81.5443 11.5814 81.3438 12.2923 81.3438 13.2129C81.3438 14.1198 81.4987 14.8102 81.8086 15.2842C82.1185 15.7536 82.6152 15.9883 83.2988 15.9883C83.6634 15.9883 84.0326 15.9085 84.4062 15.749C84.7799 15.585 85.1286 15.3753 85.4521 15.1201ZM90.6475 8.08594H89.1982V6.75293H90.6475V8.08594ZM90.5654 17H89.2803V9.36426H90.5654V17ZM99.4932 17H98.208V12.6523C98.208 12.3014 98.1875 11.9733 98.1465 11.668C98.1055 11.3581 98.0303 11.1165 97.9209 10.9434C97.807 10.752 97.6429 10.6107 97.4287 10.5195C97.2145 10.4238 96.9365 10.376 96.5947 10.376C96.2438 10.376 95.877 10.4626 95.4941 10.6357C95.1113 10.8089 94.7445 11.0299 94.3936 11.2988V17H93.1084V9.36426H94.3936V10.2119C94.7946 9.87923 95.2093 9.61947 95.6377 9.43262C96.0661 9.24577 96.5059 9.15234 96.957 9.15234C97.7819 9.15234 98.4108 9.40072 98.8438 9.89746C99.2767 10.3942 99.4932 11.1097 99.4932 12.0439V17Z" fill="white"/>
<path d="M21.6313 17.6347H19.262V13.922C19.262 13.0367 19.244 11.8973 18.0273 11.8973C16.792 11.8973 16.6033 12.8607 16.6033 13.8567V17.6347H14.234V10H16.51V11.0407H16.5407C16.8587 10.4407 17.632 9.80733 18.7873 9.80733C21.188 9.80733 21.632 11.3873 21.632 13.444V17.6347H21.6313ZM11.558 8.95533C10.7953 8.95533 10.1827 8.338 10.1827 7.57867C10.1827 6.82 10.796 6.20333 11.558 6.20333C12.318 6.20333 12.934 6.82 12.934 7.57867C12.934 8.338 12.3173 8.95533 11.558 8.95533ZM12.746 17.6347H10.37V10H12.746V17.6347ZM22.8167 4H9.18067C8.528 4 8 4.516 8 5.15267V18.8473C8 19.4847 8.528 20 9.18067 20H22.8147C23.4667 20 24 19.4847 24 18.8473V5.15267C24 4.516 23.4667 4 22.8147 4H22.8167Z" fill="white"/>
<defs>
<linearGradient id="paint0_linear" x1="0" y1="0" x2="0" y2="24" gradientUnits="userSpaceOnUse">
<stop stop-color="#BBBBBB" stop-opacity="0.1"/>
<stop offset="1" stop-opacity="0.1"/>
</linearGradient>
</defs>
</svg>
