<svg width="97" height="21" viewBox="0 0 97 21" fill="none" xmlns="http://www.w3.org/2000/svg">
<path d="M95.0001 0H24.7532C23.6486 0 22.7532 0.895432 22.7532 2V18.973C22.7532 20.0775 23.6486 20.973 24.7532 20.973H95.0001C96.1047 20.973 97.0001 20.0775 97.0001 18.973V2C97.0001 0.89543 96.1047 0 95.0001 0Z" fill="#0E9DCA"/>
<path d="M26.7407 0H2C0.895431 0 0 0.895432 0 2V18.973C0 20.0775 0.895431 20.973 2 20.973H26.7407C27.8453 20.973 28.7407 20.0775 28.7407 18.973V2C28.7407 0.89543 27.8453 0 26.7407 0Z" fill="#555555"/>
<path d="M97 0H0V20.973H97V0Z" fill="url(#paint0_linear)"/>
<path d="M44.1602 16H38.6406V7.27539H39.8008V14.9688H44.1602V16ZM46.416 8.35938H45.1738V7.2168H46.416V8.35938ZM46.3457 16H45.2441V9.45508H46.3457V16ZM53.998 16H52.8965V12.2734C52.8965 11.9727 52.8789 11.6914 52.8438 11.4297C52.8086 11.1641 52.7441 10.957 52.6504 10.8086C52.5527 10.6445 52.4121 10.5234 52.2285 10.4453C52.0449 10.3633 51.8066 10.3223 51.5137 10.3223C51.2129 10.3223 50.8984 10.3965 50.5703 10.5449C50.2422 10.6934 49.9277 10.8828 49.627 11.1133V16H48.5254V9.45508H49.627V10.1816C49.9707 9.89648 50.3262 9.67383 50.6934 9.51367C51.0605 9.35352 51.4375 9.27344 51.8242 9.27344C52.5312 9.27344 53.0703 9.48633 53.4414 9.91211C53.8125 10.3379 53.998 10.9512 53.998 11.752V16ZM62.0605 16H60.6074L57.9824 13.1348L57.2676 13.8145V16H56.166V6.88281H57.2676V12.7305L60.4492 9.45508H61.8379L58.7969 12.4785L62.0605 16ZM68.582 12.8418H63.7598C63.7598 13.2441 63.8203 13.5957 63.9414 13.8965C64.0625 14.1934 64.2285 14.4375 64.4395 14.6289C64.6426 14.8164 64.8828 14.957 65.1602 15.0508C65.4414 15.1445 65.75 15.1914 66.0859 15.1914C66.5312 15.1914 66.9785 15.1035 67.4277 14.9277C67.8809 14.748 68.2031 14.5723 68.3945 14.4004H68.4531V15.6016C68.082 15.7578 67.7031 15.8887 67.3164 15.9941C66.9297 16.0996 66.5234 16.1523 66.0977 16.1523C65.0117 16.1523 64.1641 15.8594 63.5547 15.2734C62.9453 14.6836 62.6406 13.8477 62.6406 12.7656C62.6406 11.6953 62.9316 10.8457 63.5137 10.2168C64.0996 9.58789 64.8691 9.27344 65.8223 9.27344C66.7051 9.27344 67.3848 9.53125 67.8613 10.0469C68.3418 10.5625 68.582 11.2949 68.582 12.2441V12.8418ZM67.5098 11.998C67.5059 11.4199 67.3594 10.9727 67.0703 10.6562C66.7852 10.3398 66.3496 10.1816 65.7637 10.1816C65.1738 10.1816 64.7031 10.3555 64.3516 10.7031C64.0039 11.0508 63.8066 11.4824 63.7598 11.998H67.5098ZM75.5605 16H74.459V15.3145C74.1426 15.5879 73.8125 15.8008 73.4688 15.9531C73.125 16.1055 72.752 16.1816 72.3496 16.1816C71.5684 16.1816 70.9473 15.8809 70.4863 15.2793C70.0293 14.6777 69.8008 13.8438 69.8008 12.7773C69.8008 12.2227 69.8789 11.7285 70.0352 11.2949C70.1953 10.8613 70.4102 10.4922 70.6797 10.1875C70.9453 9.89062 71.2539 9.66406 71.6055 9.50781C71.9609 9.35156 72.3281 9.27344 72.707 9.27344C73.0508 9.27344 73.3555 9.31055 73.6211 9.38477C73.8867 9.45508 74.166 9.56641 74.459 9.71875V6.88281H75.5605V16ZM74.459 14.3887V10.6328C74.1621 10.5 73.8965 10.4082 73.6621 10.3574C73.4277 10.3066 73.1719 10.2812 72.8945 10.2812C72.2773 10.2812 71.7969 10.4961 71.4531 10.9258C71.1094 11.3555 70.9375 11.9648 70.9375 12.7539C70.9375 13.5312 71.0703 14.123 71.3359 14.5293C71.6016 14.9316 72.0273 15.1328 72.6133 15.1328C72.9258 15.1328 73.2422 15.0645 73.5625 14.9277C73.8828 14.7871 74.1816 14.6074 74.459 14.3887ZM78.9121 8.35938H77.6699V7.2168H78.9121V8.35938ZM78.8418 16H77.7402V9.45508H78.8418V16ZM86.4941 16H85.3926V12.2734C85.3926 11.9727 85.375 11.6914 85.3398 11.4297C85.3047 11.1641 85.2402 10.957 85.1465 10.8086C85.0488 10.6445 84.9082 10.5234 84.7246 10.4453C84.541 10.3633 84.3027 10.3223 84.0098 10.3223C83.709 10.3223 83.3945 10.3965 83.0664 10.5449C82.7383 10.6934 82.4238 10.8828 82.123 11.1133V16H81.0215V9.45508H82.123V10.1816C82.4668 9.89648 82.8223 9.67383 83.1895 9.51367C83.5566 9.35352 83.9336 9.27344 84.3203 9.27344C85.0273 9.27344 85.5664 9.48633 85.9375 9.91211C86.3086 10.3379 86.4941 10.9512 86.4941 11.752V16Z" fill="#010101" fill-opacity="0.3"/>
<path d="M44.1602 15H38.6406V6.27539H39.8008V13.9688H44.1602V15ZM46.416 7.35938H45.1738V6.2168H46.416V7.35938ZM46.3457 15H45.2441V8.45508H46.3457V15ZM53.998 15H52.8965V11.2734C52.8965 10.9727 52.8789 10.6914 52.8438 10.4297C52.8086 10.1641 52.7441 9.95703 52.6504 9.80859C52.5527 9.64453 52.4121 9.52344 52.2285 9.44531C52.0449 9.36328 51.8066 9.32227 51.5137 9.32227C51.2129 9.32227 50.8984 9.39648 50.5703 9.54492C50.2422 9.69336 49.9277 9.88281 49.627 10.1133V15H48.5254V8.45508H49.627V9.18164C49.9707 8.89648 50.3262 8.67383 50.6934 8.51367C51.0605 8.35352 51.4375 8.27344 51.8242 8.27344C52.5312 8.27344 53.0703 8.48633 53.4414 8.91211C53.8125 9.33789 53.998 9.95117 53.998 10.752V15ZM62.0605 15H60.6074L57.9824 12.1348L57.2676 12.8145V15H56.166V5.88281H57.2676V11.7305L60.4492 8.45508H61.8379L58.7969 11.4785L62.0605 15ZM68.582 11.8418H63.7598C63.7598 12.2441 63.8203 12.5957 63.9414 12.8965C64.0625 13.1934 64.2285 13.4375 64.4395 13.6289C64.6426 13.8164 64.8828 13.957 65.1602 14.0508C65.4414 14.1445 65.75 14.1914 66.0859 14.1914C66.5312 14.1914 66.9785 14.1035 67.4277 13.9277C67.8809 13.748 68.2031 13.5723 68.3945 13.4004H68.4531V14.6016C68.082 14.7578 67.7031 14.8887 67.3164 14.9941C66.9297 15.0996 66.5234 15.1523 66.0977 15.1523C65.0117 15.1523 64.1641 14.8594 63.5547 14.2734C62.9453 13.6836 62.6406 12.8477 62.6406 11.7656C62.6406 10.6953 62.9316 9.8457 63.5137 9.2168C64.0996 8.58789 64.8691 8.27344 65.8223 8.27344C66.7051 8.27344 67.3848 8.53125 67.8613 9.04688C68.3418 9.5625 68.582 10.2949 68.582 11.2441V11.8418ZM67.5098 10.998C67.5059 10.4199 67.3594 9.97266 67.0703 9.65625C66.7852 9.33984 66.3496 9.18164 65.7637 9.18164C65.1738 9.18164 64.7031 9.35547 64.3516 9.70312C64.0039 10.0508 63.8066 10.4824 63.7598 10.998H67.5098ZM75.5605 15H74.459V14.3145C74.1426 14.5879 73.8125 14.8008 73.4688 14.9531C73.125 15.1055 72.752 15.1816 72.3496 15.1816C71.5684 15.1816 70.9473 14.8809 70.4863 14.2793C70.0293 13.6777 69.8008 12.8438 69.8008 11.7773C69.8008 11.2227 69.8789 10.7285 70.0352 10.2949C70.1953 9.86133 70.4102 9.49219 70.6797 9.1875C70.9453 8.89062 71.2539 8.66406 71.6055 8.50781C71.9609 8.35156 72.3281 8.27344 72.707 8.27344C73.0508 8.27344 73.3555 8.31055 73.6211 8.38477C73.8867 8.45508 74.166 8.56641 74.459 8.71875V5.88281H75.5605V15ZM74.459 13.3887V9.63281C74.1621 9.5 73.8965 9.4082 73.6621 9.35742C73.4277 9.30664 73.1719 9.28125 72.8945 9.28125C72.2773 9.28125 71.7969 9.49609 71.4531 9.92578C71.1094 10.3555 70.9375 10.9648 70.9375 11.7539C70.9375 12.5312 71.0703 13.123 71.3359 13.5293C71.6016 13.9316 72.0273 14.1328 72.6133 14.1328C72.9258 14.1328 73.2422 14.0645 73.5625 13.9277C73.8828 13.7871 74.1816 13.6074 74.459 13.3887ZM78.9121 7.35938H77.6699V6.2168H78.9121V7.35938ZM78.8418 15H77.7402V8.45508H78.8418V15ZM86.4941 15H85.3926V11.2734C85.3926 10.9727 85.375 10.6914 85.3398 10.4297C85.3047 10.1641 85.2402 9.95703 85.1465 9.80859C85.0488 9.64453 84.9082 9.52344 84.7246 9.44531C84.541 9.36328 84.3027 9.32227 84.0098 9.32227C83.709 9.32227 83.3945 9.39648 83.0664 9.54492C82.7383 9.69336 82.4238 9.88281 82.123 10.1133V15H81.0215V8.45508H82.123V9.18164C82.4668 8.89648 82.8223 8.67383 83.1895 8.51367C83.5566 8.35352 83.9336 8.27344 84.3203 8.27344C85.0273 8.27344 85.5664 8.48633 85.9375 8.91211C86.3086 9.33789 86.4941 9.95117 86.4941 10.752V15Z" fill="white"/>
<path d="M18.9274 15.9303H16.8542V12.6817C16.8542 11.9071 16.8385 10.9102 15.7739 10.9102C14.693 10.9102 14.5279 11.7531 14.5279 12.6246V15.9303H12.4547V9.25H14.4462V10.1606H14.4731C14.7513 9.63558 15.428 9.08142 16.4389 9.08142C18.5395 9.08142 18.928 10.4639 18.928 12.2635V15.9303H18.9274ZM10.1132 8.33592C9.44592 8.33592 8.90983 7.79575 8.90983 7.13133C8.90983 6.4675 9.4465 5.92792 10.1132 5.92792C10.7782 5.92792 11.3172 6.4675 11.3172 7.13133C11.3172 7.79575 10.7777 8.33592 10.1132 8.33592ZM11.1527 15.9303H9.07375V9.25H11.1527V15.9303ZM19.9646 4H8.03308C7.462 4 7 4.4515 7 5.00858V16.9914C7 17.5491 7.462 18 8.03308 18H19.9628C20.5333 18 21 17.5491 21 16.9914V5.00858C21 4.4515 20.5333 4 19.9628 4H19.9646Z" fill="white"/>
<defs>
<linearGradient id="paint0_linear" x1="0" y1="0" x2="0" y2="20.973" gradientUnits="userSpaceOnUse">
<stop stop-color="#BBBBBB" stop-opacity="0.1"/>
<stop offset="1" stop-opacity="0.1"/>
</linearGradient>
</defs>
</svg>
