<svg width="102" height="18" viewBox="0 0 102 18" fill="none" xmlns="http://www.w3.org/2000/svg">
<line x1="1" y1="18" x2="1" stroke="#D09498" stroke-width="2"/>
<path d="M17.301 14.14C16.1437 14.14 15.243 13.7993 14.599 13.118C13.9644 12.4367 13.647 11.4613 13.647 10.192V4.662H14.655V10.248C14.655 11.2467 14.879 11.9887 15.327 12.474C15.775 12.95 16.433 13.188 17.301 13.188C18.169 13.188 18.8317 12.95 19.289 12.474C19.7464 11.9887 19.975 11.2467 19.975 10.248V4.662H20.955V10.192C20.955 11.0413 20.8104 11.76 20.521 12.348C20.2317 12.936 19.8164 13.384 19.275 13.692C18.7337 13.9907 18.0757 14.14 17.301 14.14ZM23.3404 14V4.662H24.3484V14H23.3404ZM25.345 15.372L30.483 3.416H31.407L26.255 15.372H25.345ZM36.0452 14.14C34.8878 14.14 33.9872 13.7993 33.3432 13.118C32.7085 12.4367 32.3912 11.4613 32.3912 10.192V4.662H33.3992V10.248C33.3992 11.2467 33.6232 11.9887 34.0712 12.474C34.5192 12.95 35.1772 13.188 36.0452 13.188C36.9132 13.188 37.5758 12.95 38.0332 12.474C38.4905 11.9887 38.7192 11.2467 38.7192 10.248V4.662H39.6992V10.192C39.6992 11.0413 39.5545 11.76 39.2652 12.348C38.9758 12.936 38.5605 13.384 38.0192 13.692C37.4778 13.9907 36.8198 14.14 36.0452 14.14ZM48.9165 14H47.7125L41.1465 4.662H42.3505L48.9165 14ZM44.8845 8.568L47.6285 4.662H48.8605L45.5285 9.408L44.8845 8.568ZM45.2905 9.73L42.2945 14H41.0625L44.4645 9.142L45.2905 9.73ZM54.3892 14V4.662H57.3152C58.7712 4.662 59.8632 5.054 60.5912 5.838C61.3286 6.61267 61.6972 7.77467 61.6972 9.324C61.6972 10.8733 61.3286 12.04 60.5912 12.824C59.8632 13.608 58.7712 14 57.3152 14H54.3892ZM55.3972 13.048H57.2452C58.4399 13.048 59.3079 12.7493 59.8492 12.152C60.3906 11.5547 60.6612 10.612 60.6612 9.324C60.6612 8.036 60.3906 7.09333 59.8492 6.496C59.3079 5.89867 58.4399 5.6 57.2452 5.6H55.3972V13.048ZM63.7271 14V4.662H69.6211V5.614H64.7351V8.834H69.0331V9.814H64.7351V13.048H69.6211V14H63.7271ZM74.5079 14.14C74.0412 14.14 73.6445 14.1073 73.3179 14.042C72.9912 13.9767 72.6972 13.8833 72.4359 13.762C72.1745 13.6407 71.8899 13.5007 71.5819 13.342V12.25C71.8805 12.502 72.2819 12.726 72.7859 12.922C73.2899 13.118 73.8779 13.216 74.5499 13.216C75.2592 13.216 75.7725 13.0667 76.0899 12.768C76.4165 12.46 76.5799 12.0727 76.5799 11.606C76.5799 11.214 76.4725 10.9013 76.2579 10.668C76.0432 10.4253 75.7679 10.2293 75.4319 10.08C75.0959 9.92133 74.7412 9.772 74.3679 9.632C74.0505 9.52 73.7332 9.40333 73.4159 9.282C73.1079 9.15133 72.8279 8.99267 72.5759 8.806C72.3239 8.61 72.1232 8.36267 71.9739 8.064C71.8245 7.756 71.7499 7.37333 71.7499 6.916C71.7499 6.664 71.7965 6.398 71.8899 6.118C71.9925 5.838 72.1512 5.57667 72.3659 5.334C72.5899 5.09133 72.8839 4.89533 73.2479 4.746C73.6212 4.59667 74.0739 4.522 74.6059 4.522C74.9699 4.522 75.2779 4.55 75.5299 4.606C75.7912 4.65267 76.0385 4.72733 76.2719 4.83C76.5052 4.92333 76.7665 5.04 77.0559 5.18V6.216C76.8132 6.076 76.5799 5.95 76.3559 5.838C76.1412 5.71667 75.8985 5.62333 75.6279 5.558C75.3665 5.48333 75.0445 5.446 74.6619 5.446C74.2045 5.446 73.8359 5.51133 73.5559 5.642C73.2852 5.77267 73.0845 5.94533 72.9539 6.16C72.8325 6.37467 72.7719 6.60333 72.7719 6.846C72.7719 7.22867 72.8559 7.532 73.0239 7.756C73.2012 7.98 73.4439 8.16667 73.7519 8.316C74.0692 8.456 74.4332 8.596 74.8439 8.736C75.1705 8.848 75.4972 8.974 75.8239 9.114C76.1505 9.24467 76.4445 9.41267 76.7059 9.618C76.9765 9.814 77.1912 10.066 77.3499 10.374C77.5179 10.6727 77.6019 11.046 77.6019 11.494C77.6019 11.914 77.5085 12.3293 77.3219 12.74C77.1352 13.1413 76.8179 13.4773 76.3699 13.748C75.9219 14.0093 75.3012 14.14 74.5079 14.14ZM79.6275 14V4.662H80.6355V14H79.6275ZM86.9941 14.14C86.0421 14.14 85.2441 13.9627 84.6001 13.608C83.9561 13.244 83.4708 12.7073 83.1441 11.998C82.8268 11.2793 82.6681 10.388 82.6681 9.324C82.6681 8.26 82.8268 7.37333 83.1441 6.664C83.4708 5.95467 83.9561 5.42267 84.6001 5.068C85.2441 4.71333 86.0421 4.536 86.9941 4.536C87.5075 4.536 88.0115 4.58733 88.5061 4.69C89.0008 4.79267 89.4768 4.95133 89.9341 5.166V6.216C89.4955 6.02 89.0381 5.852 88.5621 5.712C88.0861 5.56267 87.6008 5.488 87.1061 5.488C86.3221 5.488 85.6735 5.628 85.1601 5.908C84.6561 6.17867 84.2828 6.59867 84.0401 7.168C83.7975 7.728 83.6761 8.44667 83.6761 9.324C83.6761 10.2013 83.7975 10.9247 84.0401 11.494C84.2828 12.0633 84.6561 12.488 85.1601 12.768C85.6735 13.0387 86.3221 13.174 87.1061 13.174C87.4795 13.174 87.8435 13.146 88.1981 13.09C88.5528 13.034 88.9028 12.95 89.2481 12.838V10.178H86.9941V9.198H90.2561V13.412C89.7428 13.6547 89.2155 13.8367 88.6741 13.958C88.1328 14.0793 87.5728 14.14 86.9941 14.14ZM92.6295 14V4.662H93.7775L99.6015 12.88L99.3495 13.272V4.662H100.357V14H99.2235L93.1755 5.474L93.6375 5.04V14H92.6295Z" fill="#373737"/>
</svg>
